<svg xmlns="http://www.w3.org/2000/svg" xmlns:xlink="http://www.w3.org/1999/xlink" width="97.987" height="171.071" viewBox="0 0 97.987 171.071">
  <defs>
    <clipPath id="clip-path">
      <path id="Path_6052" data-name="Path 6052" d="M130.38,189.6s-.823,56.82.624,77.811c0,0,45.6,15.924,72.02,27.505,0,0,.533-50.838.227-82.873-.051-5.294-.124-9.017-.227-10.505C203.024,201.538,154.628,190.686,130.38,189.6Z" transform="translate(-130.146 -189.6)"/>
    </clipPath>
    <clipPath id="clip-path-2">
      <path id="Path_6059" data-name="Path 6059" d="M315.935,309.637s16.619-12.366,25.11-15.668c0,0-.943-70.949-2.358-80.147L326.187,215l-10.252,1.257Z" transform="translate(-315.935 -213.823)" opacity="0.5"/>
    </clipPath>
  </defs>
  <g id="Group_19762" data-name="Group 19762" transform="translate(-14701.146 -13042.969)">
    <g id="_15636039_5636885" data-name="15636039_5636885" transform="translate(14701.146 13042.969)">
      <g id="OBJECTS" transform="translate(0 0)">
        <g id="Group_19800" data-name="Group 19800">
          <g id="Group_19799" data-name="Group 19799">
            <g id="Group_19775" data-name="Group 19775" transform="translate(32.19 2.698)">
              <g id="Group_19772" data-name="Group 19772" transform="translate(0.786 0)">
                <path id="Path_6041" data-name="Path 6041" d="M224.008,95.323A109.71,109.71,0,0,0,234.582,62.43c.964-6.142,1.5-12.34,2.854-18.42,1.038-4.676,3.109-9.475,7.055-12.393a12.929,12.929,0,0,1,3.14-1.611,12.008,12.008,0,0,1,1.733-.462c2.8-.6,5.136.953-5.675-.523a12.136,12.136,0,0,1,6.57,3.5c3.748,3.587,4.335,9.151,4.418,14.042.2,11.937-4.794,23.442-7.949,34.75-2.049,7.343-2.416,15.249-2.442,22.842,0,.218,9.8.4,9.8.466A90.756,90.756,0,0,1,257.55,78.27c3.4-11.195,7.858-22.826,6.73-34.725-.486-5.13-2.235-9.3-6.488-12.371a11.6,11.6,0,0,0-6.144-1.872,86.422,86.422,0,0,0-10.9-.386c-11.868.748-13.646,16-14.852,24.949a159.27,159.27,0,0,1-3.888,21.122,105.648,105.648,0,0,1-7.795,19.869c.124-.244,4.546.266,4.9.282.389.019,4.722.532,4.9.185Z" transform="translate(-214.213 -28.846)" fill="none"/>
              </g>
              <g id="Group_19774" data-name="Group 19774">
                <path id="Path_6042" data-name="Path 6042" d="M262.278,43.544c-.486-5.13-2.235-9.3-6.488-12.371a11.6,11.6,0,0,0-6.144-1.872,86.423,86.423,0,0,0-10.9-.386c-11.868.748-13.646,16-14.852,24.949a159.26,159.26,0,0,1-3.888,21.122,105.645,105.645,0,0,1-7.795,19.869c.124-.244,4.546.266,4.9.282.39.018,4.723.532,4.9.184a109.71,109.71,0,0,0,10.575-32.893c.964-6.142,1.5-12.34,2.854-18.419,1.038-4.676,3.109-9.475,7.055-12.393a11.973,11.973,0,0,1,2.655-1.418,14.919,14.919,0,0,1,3.113,2.321c3.748,3.587,4.334,9.151,4.418,14.042.2,11.937-4.794,23.442-7.95,34.75-2.049,7.343-2.416,15.249-2.442,22.842,0,.218,9.8.4,9.8.466a90.753,90.753,0,0,1,3.469-26.351C258.95,67.074,263.406,55.444,262.278,43.544Z" transform="translate(-212.211 -28.845)" fill="#cb5712"/>
                <g id="Group_19773" data-name="Group 19773" transform="translate(0 0.887)">
                  <path id="Path_6043" data-name="Path 6043" d="M262.24,31.108a12.073,12.073,0,0,0-5.227,4.136,40.236,40.236,0,0,1,5.655,10.114,25.087,25.087,0,0,1,3.547-8.672C264.909,34.816,263.573,32.963,262.24,31.108Z" transform="translate(-239.439 -31.108)" fill="#893b0c" opacity="0.5"/>
                  <path id="Path_6044" data-name="Path 6044" d="M289.168,197.07c-.211,3.12-.28,6.246-.291,9.321,0,.218,9.8.4,9.8.466.009-2.785.1-5.552.288-8.3Q294.055,197.871,289.168,197.07Z" transform="translate(-258.804 -131.97)" fill="#893b0c" opacity="0.5"/>
                  <path id="Path_6045" data-name="Path 6045" d="M219.082,182.709c-1.323-.4-2.647-.829-3.974-1.247q-1.36,3.113-2.9,6.145c.124-.244,4.546.266,4.9.282.39.018,4.723.532,4.9.184q1.018-2,1.947-4.034C222.315,183.638,220.689,183.2,219.082,182.709Z" transform="translate(-212.21 -122.484)" fill="#893b0c" opacity="0.5"/>
                </g>
              </g>
            </g>
            <g id="Group_19796" data-name="Group 19796" transform="translate(0 61.342)">
              <g id="Group_19776" data-name="Group 19776" transform="translate(0.233)">
                <path id="Path_6046" data-name="Path 6046" d="M130.741,182.762l13.577-2.433v-1.98s59.222,13.089,81.819,13.915c-12.178,11.619-30.348,18.311-30.348,18.311Z" transform="translate(-130.741 -178.349)"/>
                <path id="Path_6047" data-name="Path 6047" d="M162.561,196.922l1.1-16.593v-1.98s59.222,13.089,81.819,13.915c-12.178,11.619-30.348,18.311-30.348,18.311Z" transform="translate(-150.079 -178.349)"/>
              </g>
              <g id="Group_19795" data-name="Group 19795" transform="translate(0 4.413)">
                <g id="Group_19785" data-name="Group 19785">
                  <path id="Path_6048" data-name="Path 6048" d="M130.38,189.6s-.823,56.82.624,77.811c0,0,45.6,15.924,72.02,27.505,0,0,.724-82.883,0-93.378C203.024,201.538,154.628,190.686,130.38,189.6Z" transform="translate(-130.146 -189.6)" fill="#383838"/>
                  <g id="Group_19784" data-name="Group 19784">
                    <g id="Group_19783" data-name="Group 19783" clip-path="url(#clip-path)">
                      <g id="Group_19778" data-name="Group 19778" transform="translate(-5.336 8.056)">
                        <g id="Group_19777" data-name="Group 19777">
                          <path id="Path_6049" data-name="Path 6049" d="M116.728,210.669c22.092,3.6,44.188,7.314,66.155,11.623,4.954.972,9.925,1.942,14.813,3.21.3.078,1.2-.381.635-.528-11.721-3.04-23.783-4.964-35.692-7.1q-19.2-3.439-38.453-6.61-3.41-.567-6.823-1.126c-.3-.049-1.206.436-.635.529Z" transform="translate(-116.543 -210.137)" fill="#777"/>
                        </g>
                      </g>
                      <g id="Group_19780" data-name="Group 19780" transform="translate(16.505 0.988)">
                        <g id="Group_19779" data-name="Group 19779">
                          <path id="Path_6050" data-name="Path 6050" d="M172.388,202.732l9.957,1.667c.106.018.351-.058.351-.2V193.67c0-.248-.362-.14-.471-.043l-9.956,8.864.471.043V192.27l-.494.133,9.957,11.93c.139.167.629-.03.471-.219l-9.957-11.93c-.107-.128-.494-.062-.494.133V202.58c0,.248.362.14.471.043l9.957-8.864-.471-.043v10.458c0-.086.583-.086.058-.174l-1.053-.176-3.441-.576-5.17-.865c-.238-.04-.528.292-.184.35Z" transform="translate(-172.222 -192.118)" fill="#777"/>
                        </g>
                      </g>
                      <g id="Group_19782" data-name="Group 19782" transform="translate(43.53 5.416)">
                        <g id="Group_19781" data-name="Group 19781">
                          <path id="Path_6051" data-name="Path 6051" d="M241.294,214.3l10.849,1.712c.111.018.366-.06.366-.207V205.135c0-.215-.329-.182-.445-.086l-10.849,8.96.445.086.814-10.526-.517.138,10.034,12.238c.144.176.656-.029.493-.229L242.45,203.479c-.117-.142-.5-.06-.517.138l-.814,10.526c-.017.22.339.174.445.086l10.849-8.96-.445-.086v10.053c0,.732-.11.337.348.409l-10.831-1.709c-.248-.039-.552.309-.192.366Z" transform="translate(-241.119 -203.407)" fill="#777"/>
                        </g>
                      </g>
                    </g>
                  </g>
                </g>
                <g id="Group_19794" data-name="Group 19794" transform="translate(72.877 9.502)">
                  <g id="Group_19787" data-name="Group 19787">
                    <path id="Path_6053" data-name="Path 6053" d="M315.935,309.637s16.619-12.366,25.11-15.668c0,0-.943-70.949-2.358-80.147L326.187,215l-10.252,1.257Z" transform="translate(-315.935 -213.823)" fill="#383838"/>
                    <g id="Group_19786" data-name="Group 19786" transform="translate(0.993 0)">
                      <path id="Path_6054" data-name="Path 6054" d="M318.466,415.907l11.562-27.224,12.555,11.556Z" transform="translate(-318.466 -320.093)" fill="#141414" opacity="0.5"/>
                      <path id="Path_6055" data-name="Path 6055" d="M356.928,293.97s-.943-70.949-2.358-80.147L342.07,215l2.3,67.411S346.787,285.007,356.928,293.97Z" transform="translate(-332.811 -213.823)" fill="#262626" opacity="0.5"/>
                    </g>
                  </g>
                  <g id="Group_19793" data-name="Group 19793" opacity="0.5">
                    <g id="Group_19792" data-name="Group 19792" clip-path="url(#clip-path-2)">
                      <path id="Path_6056" data-name="Path 6056" d="M341.4,237.873s-15.8,2.534-24.883,3.508" transform="translate(-316.286 -228.439)" fill="none" stroke="#000" stroke-width="0.451"/>
                      <g id="Group_19789" data-name="Group 19789" transform="translate(-0.263 -0.857)">
                        <g id="Group_19788" data-name="Group 19788">
                          <path id="Path_6057" data-name="Path 6057" d="M325.523,211.857l1.926,58.747q.166,5.081.333,10.161c.059,1.811-.7,2.989-1.469,4.735l-11.042,25.1c-.07.159.439.1.512-.065l11.625-26.423a7.88,7.88,0,0,0,.856-4.423q-.2-6.172-.4-12.343l-1.824-55.625c0-.162-.519-.06-.512.138Z" transform="translate(-315.264 -211.639)"/>
                        </g>
                      </g>
                      <g id="Group_19791" data-name="Group 19791" transform="translate(12.276 68.677)">
                        <g id="Group_19790" data-name="Group 19790">
                          <path id="Path_6058" data-name="Path 6058" d="M360.3,400.272l-12.57-11.329c-.137-.124-.619.074-.475.2l12.57,11.329c.137.124.619-.073.475-.2Z" transform="translate(-347.23 -388.904)"/>
                        </g>
                      </g>
                    </g>
                  </g>
                </g>
              </g>
            </g>
            <g id="Group_19798" data-name="Group 19798" transform="translate(17.172)">
              <path id="Path_6060" data-name="Path 6060" d="M183.673,91.218a87.276,87.276,0,0,0,5.187-16.613c1.159-6.19,1.367-12.515,1.69-18.789.4-7.733.9-15.834,3.915-23.063a17.722,17.722,0,0,1,6.336-8.121,12.175,12.175,0,0,1,3.322-1.5l.032.013c8.428,3.691,10.731,14.68,10.8,22.866.073,8.516-2.285,16.952-5.431,24.8-1.588,3.959-3.617,7.6-4.707,11.768-1.027,3.918-2.66,7.675-3.248,11.688,3.353.617,6.6,1.235,9.636,1.831a36.135,36.135,0,0,1,1.966-8.334c.954-2.905,1.662-5.888,2.72-8.757.975-2.644,2.236-5.18,3.429-7.729a59.746,59.746,0,0,0,3-8.669c2.873-9.912,4.019-21.589-.745-31.111a16.573,16.573,0,0,0-8.509-8.246,13.822,13.822,0,0,0-4.1-.8q1.041-.1-3.432-.2a45.43,45.43,0,0,0-8.822-.08C188.9,23.188,185,29.949,183.093,36.935c-1.955,7.17-2.151,14.766-2.527,22.139a112.851,112.851,0,0,1-1.779,16.495,82.3,82.3,0,0,1-4.56,14.315C177.287,90.274,180.459,90.726,183.673,91.218Z" transform="translate(-174.109 -21.969)" fill="#ff721e"/>
              <g id="Group_19797" data-name="Group 19797" transform="translate(0 67.699)">
                <line id="Line_111" data-name="Line 111" x2="9.957" y2="1.158" fill="none" stroke="#777" stroke-width="1"/>
                <line id="Line_112" data-name="Line 112" x2="10.034" y2="2.209" transform="translate(27.853 4.198)" fill="none" stroke="#777" stroke-width="1"/>
              </g>
            </g>
          </g>
        </g>
      </g>
      <path id="Path_6061" data-name="Path 6061" d="M197.538,19.393a6.6,6.6,0,0,1-3.357,1.8c-2.963.493-5.957.8-8.919,1.312a36.451,36.451,0,0,0-6.184,1.423,21.2,21.2,0,0,0-7.978,5.383,13.313,13.313,0,0,1-2.689,2.277,8.981,8.981,0,0,1-3.122.854,7.32,7.32,0,0,0,4.659-4.393,7.064,7.064,0,0,0-.638-6.405,5.946,5.946,0,0,0-4.381-2.964,6.676,6.676,0,0,0-5.142,1.129,5.342,5.342,0,0,1,3.4-2.236,31.463,31.463,0,0,1,3.931-.529,9.834,9.834,0,0,0,3.924-1.386,25.119,25.119,0,0,0,6.261-5.154c2.034-2.248,4.025-4.536,6.126-6.717a11.586,11.586,0,0,1,4.6-3.107c3.063-1.028,7.275-.676,9.778,1.959a8.577,8.577,0,0,0-5.79-.7,7.854,7.854,0,0,0-4.925,3,9.286,9.286,0,0,0-.1,11.861A8.852,8.852,0,0,0,197.538,19.393Z" transform="translate(-142.193 97.92)" fill="#fff"/>
    </g>
  </g>
</svg>
