<svg xmlns="http://www.w3.org/2000/svg" width="19.933" height="26.384" viewBox="0 0 19.933 26.384">
  <path id="Path_84" data-name="Path 84" d="M270.507,21.1c-.674,3.632-1.495,7.115-3.931,8.934-.75-5.49,1.105-9.613,1.966-13.99-1.469-2.545.177-7.668,3.273-6.406,3.811,1.554-3.3,9.463,1.474,10.451,4.984,1.031,7.02-8.9,3.929-12.137-4.466-4.665-13-.105-11.95,6.574.256,1.634,1.893,2.129.654,4.384-2.858-.654-3.711-2.975-3.6-6.07A9.766,9.766,0,0,1,271,3.738c5.383-.621,10.434,2.035,11.131,7.248.786,5.884-2.429,12.258-8.184,11.8C272.384,22.661,271.729,21.865,270.507,21.1Z" transform="translate(-262.313 -3.649)" fill="#fff"/>
</svg>
